<svg width="40" height="40" viewBox="0 0 40 40" fill="none" xmlns="http://www.w3.org/2000/svg">
<path d="M32.95 22.9166H26.2167C22.8667 22.9166 21.25 21.3666 21.25 18.1666V6.83331C21.25 3.63331 22.8833 2.08331 26.2167 2.08331H32.95C36.3 2.08331 37.9167 3.63331 37.9167 6.83331V18.1666C37.9167 21.3666 36.2833 22.9166 32.95 22.9166ZM26.2167 4.58331C24.1 4.58331 23.75 5.14998 23.75 6.83331V18.1666C23.75 19.85 24.1 20.4166 26.2167 20.4166H32.95C35.0667 20.4166 35.4167 19.85 35.4167 18.1666V6.83331C35.4167 5.14998 35.0667 4.58331 32.95 4.58331H26.2167Z" fill="#6F3DE9"/>
<path d="M32.95 37.9167H26.2167C22.8667 37.9167 21.25 36.3667 21.25 33.1667V30.1667C21.25 26.9667 22.8833 25.4167 26.2167 25.4167H32.95C36.3 25.4167 37.9167 26.9667 37.9167 30.1667V33.1667C37.9167 36.3667 36.2833 37.9167 32.95 37.9167ZM26.2167 27.9167C24.1 27.9167 23.75 28.4834 23.75 30.1667V33.1667C23.75 34.85 24.1 35.4167 26.2167 35.4167H32.95C35.0667 35.4167 35.4167 34.85 35.4167 33.1667V30.1667C35.4167 28.4834 35.0667 27.9167 32.95 27.9167H26.2167Z" fill="#6F3DE9"/>
<path d="M13.783 37.9166H7.04967C3.69967 37.9166 2.08301 36.3666 2.08301 33.1666V21.8333C2.08301 18.6333 3.71634 17.0833 7.04967 17.0833H13.783C17.133 17.0833 18.7497 18.6333 18.7497 21.8333V33.1666C18.7497 36.3666 17.1163 37.9166 13.783 37.9166ZM7.04967 19.5833C4.93301 19.5833 4.58301 20.15 4.58301 21.8333V33.1666C4.58301 34.85 4.93301 35.4166 7.04967 35.4166H13.783C15.8997 35.4166 16.2497 34.85 16.2497 33.1666V21.8333C16.2497 20.15 15.8997 19.5833 13.783 19.5833H7.04967Z" fill="#6F3DE9"/>
<path d="M13.783 14.5833H7.04967C3.69967 14.5833 2.08301 13.0333 2.08301 9.83331V6.83331C2.08301 3.63331 3.71634 2.08331 7.04967 2.08331H13.783C17.133 2.08331 18.7497 3.63331 18.7497 6.83331V9.83331C18.7497 13.0333 17.1163 14.5833 13.783 14.5833ZM7.04967 4.58331C4.93301 4.58331 4.58301 5.14998 4.58301 6.83331V9.83331C4.58301 11.5166 4.93301 12.0833 7.04967 12.0833H13.783C15.8997 12.0833 16.2497 11.5166 16.2497 9.83331V6.83331C16.2497 5.14998 15.8997 4.58331 13.783 4.58331H7.04967Z" fill="#6F3DE9"/>
</svg>
