<svg width="40" height="40" viewBox="0 0 40 40" fill="none" xmlns="http://www.w3.org/2000/svg">
<path d="M20.1998 22.5491C20.1665 22.5491 20.1165 22.5491 20.0831 22.5491C20.0331 22.5491 19.9665 22.5491 19.9165 22.5491C16.1331 22.4324 13.2998 19.4824 13.2998 15.8491C13.2998 12.1491 16.3165 9.13239 20.0165 9.13239C23.7165 9.13239 26.7331 12.1491 26.7331 15.8491C26.7165 19.4991 23.8665 22.4324 20.2498 22.5491C20.2165 22.5491 20.2165 22.5491 20.1998 22.5491ZM19.9998 11.6157C17.6665 11.6157 15.7831 13.5157 15.7831 15.8324C15.7831 18.1157 17.5665 19.9657 19.8331 20.0491C19.8831 20.0324 20.0498 20.0324 20.2165 20.0491C22.4498 19.9324 24.1998 18.0991 24.2165 15.8324C24.2165 13.5157 22.3331 11.6157 19.9998 11.6157Z" fill="#6F3DE9"/>
<path d="M19.9991 37.9168C15.5157 37.9168 11.2324 36.2502 7.91574 33.2168C7.61574 32.9502 7.48241 32.5502 7.51574 32.1668C7.73241 30.1835 8.96574 28.3335 11.0157 26.9668C15.9824 23.6668 24.0324 23.6668 28.9824 26.9668C31.0324 28.3502 32.2657 30.1835 32.4824 32.1668C32.5324 32.5668 32.3824 32.9502 32.0824 33.2168C28.7657 36.2502 24.4824 37.9168 19.9991 37.9168ZM10.1324 31.8335C12.8991 34.1502 16.3824 35.4168 19.9991 35.4168C23.6157 35.4168 27.0991 34.1502 29.8657 31.8335C29.5657 30.8168 28.7657 29.8335 27.5824 29.0335C23.4824 26.3002 16.5324 26.3002 12.3991 29.0335C11.2157 29.8335 10.4324 30.8168 10.1324 31.8335Z" fill="#6F3DE9"/>
<path d="M19.9987 37.9173C10.1154 37.9173 2.08203 29.884 2.08203 20.0007C2.08203 10.1173 10.1154 2.08398 19.9987 2.08398C29.882 2.08398 37.9154 10.1173 37.9154 20.0007C37.9154 29.884 29.882 37.9173 19.9987 37.9173ZM19.9987 4.58398C11.4987 4.58398 4.58203 11.5007 4.58203 20.0007C4.58203 28.5007 11.4987 35.4173 19.9987 35.4173C28.4987 35.4173 35.4154 28.5007 35.4154 20.0007C35.4154 11.5007 28.4987 4.58398 19.9987 4.58398Z" fill="#6F3DE9"/>
</svg>
