<svg width="16" height="16" viewBox="0 0 16 16" fill="none" xmlns="http://www.w3.org/2000/svg">
<g id="Group 33809">
<path id="Vector" d="M14.8034 13.8176L12.208 11.2416C13.2154 9.98472 13.7033 8.38934 13.5713 6.78354C13.4393 5.17774 12.6974 3.68358 11.4983 2.60828C10.2991 1.53298 8.7337 0.958287 7.12404 1.00236C5.51437 1.04643 3.98276 1.70592 2.84413 2.84523C1.7055 3.98454 1.0464 5.51706 1.00236 7.12768C0.958312 8.7383 1.53267 10.3046 2.60733 11.5045C3.68198 12.7044 5.17526 13.4467 6.7801 13.5788C8.38495 13.7109 9.97938 13.2227 11.2355 12.2146L13.81 14.7906C13.8751 14.8562 13.9524 14.9083 14.0377 14.9439C14.1229 14.9794 14.2144 14.9977 14.3067 14.9977C14.3991 14.9977 14.4905 14.9794 14.5758 14.9439C14.661 14.9083 14.7384 14.8562 14.8034 14.7906C14.9295 14.6601 15 14.4857 15 14.3041C15 14.1226 14.9295 13.9482 14.8034 13.8176ZM7.31088 12.2146C6.34233 12.2146 5.39552 11.9273 4.5902 11.3888C3.78488 10.8504 3.15721 10.0851 2.78656 9.18978C2.41591 8.29442 2.31893 7.3092 2.50789 6.35869C2.69684 5.40818 3.16324 4.53508 3.84811 3.84981C4.53298 3.16453 5.40556 2.69785 6.3555 2.50878C7.30545 2.31971 8.29009 2.41675 9.18491 2.78762C10.0797 3.15849 10.8446 3.78654 11.3827 4.59234C11.9208 5.39814 12.208 6.3455 12.208 7.31463C12.208 8.61419 11.692 9.86053 10.7736 10.7795C9.85526 11.6984 8.60967 12.2146 7.31088 12.2146Z" fill="#171B2E"/>
</g>
</svg>
