<svg width="20" height="20" viewBox="0 0 20 20" fill="none" xmlns="http://www.w3.org/2000/svg">
<path d="M12.5003 18.9584H7.50033C2.97533 18.9584 1.04199 17.025 1.04199 12.5V7.50002C1.04199 2.97502 2.97533 1.04169 7.50033 1.04169H12.5003C17.0253 1.04169 18.9587 2.97502 18.9587 7.50002V12.5C18.9587 17.025 17.0253 18.9584 12.5003 18.9584ZM7.50033 2.29169C3.65866 2.29169 2.29199 3.65835 2.29199 7.50002V12.5C2.29199 16.3417 3.65866 17.7084 7.50033 17.7084H12.5003C16.342 17.7084 17.7087 16.3417 17.7087 12.5V7.50002C17.7087 3.65835 16.342 2.29169 12.5003 2.29169H7.50033Z" fill="white"/>
<path d="M12.9834 16.0417C12.6417 16.0417 12.3584 15.7584 12.3584 15.4167V12.1667C12.3584 11.825 12.6417 11.5417 12.9834 11.5417C13.3251 11.5417 13.6084 11.825 13.6084 12.1667V15.4167C13.6084 15.7584 13.3251 16.0417 12.9834 16.0417Z" fill="white"/>
<path d="M12.9834 6.83331C12.6417 6.83331 12.3584 6.54998 12.3584 6.20831V4.58331C12.3584 4.24165 12.6417 3.95831 12.9834 3.95831C13.3251 3.95831 13.6084 4.24165 13.6084 4.58331V6.20831C13.6084 6.54998 13.3251 6.83331 12.9834 6.83331Z" fill="white"/>
<path d="M12.9831 11.1666C11.4414 11.1666 10.1914 9.91665 10.1914 8.37498C10.1914 6.83331 11.4414 5.58331 12.9831 5.58331C14.5247 5.58331 15.7747 6.83331 15.7747 8.37498C15.7747 9.91665 14.5164 11.1666 12.9831 11.1666ZM12.9831 6.83331C12.1331 6.83331 11.4414 7.52498 11.4414 8.37498C11.4414 9.22498 12.1331 9.91665 12.9831 9.91665C13.8331 9.91665 14.5247 9.22498 14.5247 8.37498C14.5247 7.52498 13.8247 6.83331 12.9831 6.83331Z" fill="white"/>
<path d="M7.0166 16.0417C6.67493 16.0417 6.3916 15.7584 6.3916 15.4167V13.7917C6.3916 13.45 6.67493 13.1667 7.0166 13.1667C7.35827 13.1667 7.6416 13.45 7.6416 13.7917V15.4167C7.6416 15.7584 7.3666 16.0417 7.0166 16.0417Z" fill="white"/>
<path d="M7.0166 8.45831C6.67493 8.45831 6.3916 8.17498 6.3916 7.83331V4.58331C6.3916 4.24165 6.67493 3.95831 7.0166 3.95831C7.35827 3.95831 7.6416 4.24165 7.6416 4.58331V7.83331C7.6416 8.17498 7.3666 8.45831 7.0166 8.45831Z" fill="white"/>
<path d="M7.01628 14.4166C5.47461 14.4166 4.22461 13.1666 4.22461 11.625C4.22461 10.0833 5.47461 8.83331 7.01628 8.83331C8.55794 8.83331 9.80794 10.0833 9.80794 11.625C9.80794 13.1666 8.55794 14.4166 7.01628 14.4166ZM7.01628 10.0833C6.16628 10.0833 5.47461 10.775 5.47461 11.625C5.47461 12.475 6.16628 13.1666 7.01628 13.1666C7.86628 13.1666 8.55794 12.475 8.55794 11.625C8.55794 10.775 7.87461 10.0833 7.01628 10.0833Z" fill="white"/>
</svg>
