<svg width="40" height="40" viewBox="0 0 40 40" fill="none" xmlns="http://www.w3.org/2000/svg">
<path d="M20 37.9166C18.8333 37.9166 17.65 37.4666 16.7667 36.5833L13.9166 33.7666C13.2166 33.0666 12.25 32.6833 11.2667 32.6833H10C6.55 32.6833 3.75 29.9 3.75 26.4833V8.28331C3.75 4.86665 6.55 2.08331 10 2.08331H30C33.45 2.08331 36.25 4.86665 36.25 8.28331V26.4666C36.25 29.8833 33.45 32.6666 30 32.6666H28.7333C27.75 32.6666 26.7834 33.0666 26.0834 33.75L23.2333 36.5667C22.35 37.4666 21.1667 37.9166 20 37.9166ZM10 4.58331C7.93333 4.58331 6.25 6.24998 6.25 8.28331V26.4666C6.25 28.5166 7.93333 30.1666 10 30.1666H11.2667C12.9167 30.1666 14.5166 30.8333 15.6833 31.9833L18.5333 34.8C19.35 35.6 20.6667 35.6 21.4834 34.8L24.3333 31.9833C25.5 30.8333 27.1 30.1666 28.75 30.1666H30C32.0667 30.1666 33.75 28.5 33.75 26.4666V8.28331C33.75 6.23331 32.0667 4.58331 30 4.58331H10Z" fill="#6F3DE9"/>
<path d="M20.1167 16.1666C20.0834 16.1666 20.0334 16.1666 20 16.1666C19.95 16.1666 19.8834 16.1666 19.8334 16.1666C17.4001 16.0833 15.5 14.1166 15.5 11.6666C15.5 9.18329 17.5167 7.16663 20 7.16663C22.4834 7.16663 24.5 9.18329 24.5 11.6666C24.4834 14.1166 22.5834 16.0833 20.1501 16.1666C20.1501 16.1666 20.1334 16.1666 20.1167 16.1666ZM20 9.66663C18.9 9.66663 18 10.5666 18 11.6666C18 12.75 18.85 13.6333 19.9167 13.6666C19.9167 13.65 20.0167 13.65 20.1334 13.6666C21.1834 13.6 22 12.7333 22 11.6666C22 10.5666 21.1 9.66663 20 9.66663Z" fill="#6F3DE9"/>
<path d="M20 27.8334C18.1 27.8334 16.2 27.3334 14.7167 26.35C13.3167 25.4167 12.5 24.0667 12.5 22.6334C12.5 21.2 13.3 19.8334 14.7167 18.9C17.6834 16.9334 22.3166 16.9334 25.2666 18.9C26.6666 19.8334 27.4833 21.2 27.4833 22.6167C27.4833 24.05 26.6833 25.4 25.2666 26.35C23.8 27.35 21.9 27.8334 20 27.8334ZM16.1 20.9834C15.3833 21.4667 15 22.05 15 22.6334C15 23.2167 15.4 23.8 16.1 24.2834C18.2166 25.7 21.7667 25.7 23.8834 24.2834C24.6 23.8 25 23.2167 24.9833 22.6334C24.9833 22.05 24.5834 21.4667 23.8834 20.9834C21.7834 19.5667 18.2166 19.5667 16.1 20.9834Z" fill="#6F3DE9"/>
</svg>
